<?xml version="1.0" encoding="utf-8"?>
<!-- Generator: Adobe Illustrator 21.1.0, SVG Export Plug-In . SVG Version: 6.00 Build 0)  -->
<svg version="1.1" id="Layer_1" xmlns="http://www.w3.org/2000/svg" xmlns:xlink="http://www.w3.org/1999/xlink" x="0px" y="0px"
	 viewBox="0 0 962 540" style="enable-background:new 0 0 962 540;" xml:space="preserve">
<style type="text/css">
	.st0{fill:#FFFFFF;}
</style>
<g>
	<path class="st0" d="M0,0v539h961V0H0z M651.9,398.8l-65.1-101.6v101.6h-56.1H470l-15.7-45.9h-97.5l-15.7,45.9h-53.1v0.2h-68.3
		V290.1h-98.6V399H53V134.9v0h68.3v0v101.9h98.6V134.9v0h68.3v0v212l80.2-212l0.1-0.2h74.5l0.1,0.2l75.5,199.6V134.9v-0.2h106.2
		c2.3,0,4.5,0.1,6.6,0.2c11.9,0.6,22.4,2.7,31.7,6.3c10.9,4.3,19.9,10.2,27,17.7c7.1,7.5,12.4,16.1,16,25.9
		c3.6,9.8,5.4,20.3,5.4,31.5c0,20.1-4.8,36.4-14.5,48.9c-9.6,12.5-23.9,21-42.7,25.4l82.5,108.2H651.9z M906.2,192.9H906h0h-55.8
		v206h-68.3v-206h-56.1v-58v-0.2H906h0.2V192.9z"/>
	<polygon class="st0" points="375,300.8 436.3,300.8 405.6,212.8 	"/>
	<path class="st0" d="M630.6,196c-7.2-5.6-17.5-8.4-31-8.4h-12.9v65.2h12.9c13.5,0,23.8-2.8,31-8.4c7.2-5.6,10.8-13.7,10.8-24.2
		S637.8,201.6,630.6,196z"/>
	<path class="st0" d="M624.7,134.7H518.5v0.2h112.9C629.2,134.8,627,134.7,624.7,134.7z"/>
	<rect x="53" y="134.9" class="st0" width="68.3" height="0"/>
	<polygon class="st0" points="442.9,134.7 368.4,134.7 368.3,134.9 443,134.9 	"/>
	<rect x="219.8" y="134.9" class="st0" width="68.3" height="0"/>
	<rect x="725.8" y="134.7" class="st0" width="180.2" height="0.2"/>
	<polygon class="st0" points="906,134.9 906,134.9 906,192.9 906.2,192.9 906.2,134.7 906,134.7 	"/>
	<rect x="906" y="134.9" class="st0" width="0" height="58"/>
</g>
</svg>
